<?xml version="1.0" encoding="UTF-8" standalone="no"?>
<!DOCTYPE svg PUBLIC "-//W3C//DTD SVG 1.1//EN" "http://www.w3.org/Graphics/SVG/1.1/DTD/svg11.dtd">
<svg width="100%" height="100%" viewBox="0 0 521 602" version="1.1" xmlns="http://www.w3.org/2000/svg" xmlns:xlink="http://www.w3.org/1999/xlink" xml:space="preserve" xmlns:serif="http://www.serif.com/" style="fill-rule:evenodd;clip-rule:evenodd;stroke-linecap:round;stroke-linejoin:round;stroke-miterlimit:1.5;">
    <g transform="matrix(1,0,0,1,-1309.45,-1999.07)">
        <g transform="matrix(1,0,0,1,21.5518,372.363)">
            <g id="Key-Block" serif:id="Key Block" transform="matrix(0.799877,-0.461809,4.44021e-17,0.923619,1232.29,1714.26)">
                <rect x="394.945" y="428.028" width="324.84" height="324.84" style="fill:rgb(53,167,156);"/>
                <g transform="matrix(1.0827,0,0,1.51451,153.915,-2158.32)">
                    <path d="M373.483,1770.38C373.483,1768.58 371.936,1766.37 369.425,1764.57C366.914,1762.78 363.821,1761.67 361.31,1761.67L361.308,1761.67C359.528,1761.67 358.432,1762.46 358.432,1763.73C358.432,1776.12 358.432,1841.12 358.432,1864.87C358.432,1866.67 359.979,1868.88 362.489,1870.67C365,1872.47 368.094,1873.57 370.605,1873.57L370.606,1873.57C372.386,1873.57 373.483,1872.79 373.483,1871.52C373.483,1859.12 373.483,1794.13 373.483,1770.38Z" style="fill:rgb(253,244,152);"/>
                </g>
                <g transform="matrix(-0.732413,0,0,-0.933827,861.406,2383.22)">
                    <path d="M442.848,1852.66C442.848,1851.17 441.677,1849.33 439.776,1847.84C437.875,1846.35 435.533,1845.43 433.633,1845.43C420.339,1845.43 396.027,1845.43 383.7,1845.43C378.997,1845.43 376.1,1847.71 376.1,1851.39C376.1,1851.39 376.1,1851.39 376.1,1851.4C376.1,1855.57 379.375,1860.7 384.691,1864.87C390.008,1869.04 396.557,1871.61 401.874,1871.61C416.44,1871.61 433.047,1871.61 439.776,1871.61C441.677,1871.61 442.848,1870.69 442.848,1869.2C442.848,1865.48 442.848,1858.19 442.848,1852.66Z" style="fill:rgb(253,244,152);"/>
                </g>
                <g transform="matrix(-0.732413,0,0,-0.933827,861.406,2329.29)">
                    <path d="M442.848,1852.66C442.848,1851.17 441.677,1849.33 439.776,1847.84C437.875,1846.35 435.533,1845.43 433.633,1845.43C420.339,1845.43 396.027,1845.43 383.7,1845.43C378.997,1845.43 376.1,1847.71 376.1,1851.39C376.1,1851.39 376.1,1851.39 376.1,1851.4C376.1,1855.57 379.375,1860.7 384.691,1864.87C390.008,1869.04 396.557,1871.61 401.874,1871.61C416.44,1871.61 433.047,1871.61 439.776,1871.61C441.677,1871.61 442.848,1870.69 442.848,1869.2C442.848,1865.48 442.848,1858.19 442.848,1852.66Z" style="fill:rgb(253,244,152);"/>
                </g>
                <g transform="matrix(1.50375,0,0,1.50375,-11.6947,-2061.03)">
                    <circle cx="374.111" cy="1718.3" r="16.962" style="fill:rgb(253,244,152);"/>
                </g>
                <g transform="matrix(1.0827,0,0,1.0827,154.624,-1346.45)">
                    <circle cx="365.475" cy="1727.25" r="12.665" style="fill:rgb(53,167,156);"/>
                </g>
                <rect x="394.945" y="428.028" width="324.84" height="324.84" style="fill:none;stroke:black;stroke-width:1.53px;"/>
            </g>
        </g>
        <g transform="matrix(1,0,0,1,21.5518,372.363)">
            <g id="Key-Block1" serif:id="Key Block" transform="matrix(0.799877,0.461809,-4.44021e-17,0.923619,972.486,1199.45)">
                <rect x="394.945" y="428.028" width="324.84" height="324.84" style="fill:rgb(53,167,156);"/>
                <g transform="matrix(1.0827,0,0,1.51451,153.915,-2158.32)">
                    <path d="M373.483,1763.73C373.483,1762.46 372.386,1761.67 370.606,1761.67C370.606,1761.67 370.605,1761.67 370.605,1761.67C368.094,1761.67 365,1762.78 362.489,1764.57C359.979,1766.37 358.432,1768.58 358.432,1770.38L358.432,1871.52C358.432,1872.79 359.528,1873.57 361.308,1873.57C361.309,1873.57 361.309,1873.57 361.31,1873.57C363.821,1873.57 366.914,1872.47 369.425,1870.67C371.936,1868.88 373.483,1866.67 373.483,1864.87L373.483,1763.73Z" style="fill:rgb(253,244,152);"/>
                </g>
                <g transform="matrix(-0.732413,0,0,-0.933827,861.406,2383.22)">
                    <path d="M442.848,1847.84C442.848,1846.35 441.677,1845.43 439.776,1845.43C433.047,1845.43 416.44,1845.43 401.874,1845.43C396.557,1845.43 390.008,1848 384.691,1852.17C379.375,1856.34 376.1,1861.48 376.1,1865.65C376.1,1865.65 376.1,1865.65 376.1,1865.65C376.1,1869.34 378.997,1871.61 383.7,1871.61C396.027,1871.61 420.339,1871.61 433.633,1871.61C435.533,1871.61 437.875,1870.69 439.776,1869.2C441.677,1867.71 442.848,1865.87 442.848,1864.38C442.848,1858.85 442.848,1851.56 442.848,1847.84Z" style="fill:rgb(253,244,152);"/>
                </g>
                <g transform="matrix(-0.732413,0,0,-0.933827,861.406,2329.29)">
                    <path d="M442.848,1847.84C442.848,1846.35 441.677,1845.43 439.776,1845.43C433.047,1845.43 416.44,1845.43 401.874,1845.43C396.557,1845.43 390.008,1848 384.691,1852.17C379.375,1856.34 376.1,1861.48 376.1,1865.65C376.1,1865.65 376.1,1865.65 376.1,1865.65C376.1,1869.34 378.997,1871.61 383.7,1871.61C396.027,1871.61 420.339,1871.61 433.633,1871.61C435.533,1871.61 437.875,1870.69 439.776,1869.2C441.677,1867.71 442.848,1865.87 442.848,1864.38C442.848,1858.85 442.848,1851.56 442.848,1847.84Z" style="fill:rgb(253,244,152);"/>
                </g>
                <g transform="matrix(1.50375,0,0,1.50375,-11.6947,-2061.03)">
                    <circle cx="374.111" cy="1718.3" r="16.962" style="fill:rgb(253,244,152);"/>
                </g>
                <g transform="matrix(1.0827,0,0,1.0827,154.624,-1346.45)">
                    <circle cx="365.475" cy="1727.25" r="12.665" style="fill:rgb(53,167,156);"/>
                </g>
                <rect x="394.945" y="428.028" width="324.84" height="324.84" style="fill:none;stroke:black;stroke-width:0.88px;"/>
            </g>
        </g>
        <g transform="matrix(1,0,0,1,21.5518,372.363)">
            <g id="Key-Block2" serif:id="Key Block" transform="matrix(-0.799877,0.461809,-0.799877,-0.461809,2466.41,1792.5)">
                <rect x="394.945" y="428.028" width="324.84" height="324.84" style="fill:rgb(53,167,156);"/>
                <g transform="matrix(1.0827,0,0,1.51451,153.915,-2158.32)">
                    <path d="M373.483,1763.73C373.483,1762.46 372.386,1761.67 370.606,1761.67C370.606,1761.67 370.605,1761.67 370.605,1761.67C368.094,1761.67 365,1762.78 362.489,1764.57C359.979,1766.37 358.432,1768.58 358.432,1770.38C358.432,1794.13 358.432,1859.12 358.432,1871.52C358.432,1872.79 359.528,1873.57 361.308,1873.57C361.309,1873.57 361.309,1873.57 361.31,1873.57C363.821,1873.57 366.914,1872.47 369.425,1870.67C371.936,1868.88 373.483,1866.67 373.483,1864.87C373.483,1841.12 373.483,1776.12 373.483,1763.73Z" style="fill:rgb(253,244,152);"/>
                </g>
                <g transform="matrix(-0.732413,0,0,-0.933827,861.406,2383.22)">
                    <path d="M442.848,1847.84C442.848,1846.35 441.677,1845.43 439.776,1845.43C433.047,1845.43 416.44,1845.43 401.874,1845.43C396.557,1845.43 390.008,1848 384.691,1852.17C379.375,1856.34 376.1,1861.48 376.1,1865.65C376.1,1865.65 376.1,1865.65 376.1,1865.65C376.1,1869.34 378.997,1871.61 383.7,1871.61C396.027,1871.61 420.339,1871.61 433.633,1871.61C435.533,1871.61 437.875,1870.69 439.776,1869.2C441.677,1867.71 442.848,1865.87 442.848,1864.38C442.848,1858.85 442.848,1851.56 442.848,1847.84Z" style="fill:rgb(253,244,152);"/>
                </g>
                <g transform="matrix(-0.732413,0,0,-0.933827,861.406,2329.29)">
                    <path d="M442.848,1847.84C442.848,1846.35 441.677,1845.43 439.776,1845.43C433.047,1845.43 416.44,1845.43 401.874,1845.43C396.557,1845.43 390.008,1848 384.691,1852.17C379.375,1856.34 376.1,1861.48 376.1,1865.65C376.1,1865.65 376.1,1865.65 376.1,1865.65C376.1,1869.34 378.997,1871.61 383.7,1871.61C396.027,1871.61 420.339,1871.61 433.633,1871.61C435.533,1871.61 437.875,1870.69 439.776,1869.2C441.677,1867.71 442.848,1865.87 442.848,1864.38C442.848,1858.85 442.848,1851.56 442.848,1847.84Z" style="fill:rgb(253,244,152);"/>
                </g>
                <g transform="matrix(1.50375,0,0,1.50375,-11.6947,-2061.03)">
                    <circle cx="374.111" cy="1718.3" r="16.962" style="fill:rgb(253,244,152);"/>
                </g>
                <g transform="matrix(1.0827,0,0,1.0827,154.624,-1346.45)">
                    <circle cx="365.475" cy="1727.25" r="12.665" style="fill:rgb(53,167,156);"/>
                </g>
                <rect x="394.945" y="428.028" width="324.84" height="324.84" style="fill:none;stroke:black;stroke-width:0.88px;"/>
            </g>
        </g>
    </g>
</svg>
