<?xml version="1.0" encoding="UTF-8" standalone="no"?>
<!DOCTYPE svg PUBLIC "-//W3C//DTD SVG 1.1//EN" "http://www.w3.org/Graphics/SVG/1.1/DTD/svg11.dtd">
<svg width="100%" height="100%" viewBox="0 0 425 425" version="1.1" xmlns="http://www.w3.org/2000/svg" xmlns:xlink="http://www.w3.org/1999/xlink" xml:space="preserve" xmlns:serif="http://www.serif.com/" style="fill-rule:evenodd;clip-rule:evenodd;stroke-linecap:round;stroke-linejoin:round;stroke-miterlimit:1.5;">
    <g transform="matrix(1,0,0,1,-742.349,-321.64)">
        <path id="NFC-Image" serif:id="NFC Image" d="M1163.44,377.058C1163.44,348.537 1140.32,325.417 1111.8,325.417L797.767,325.417C769.247,325.417 746.127,348.537 746.127,377.058L746.127,691.093C746.127,719.613 769.247,742.733 797.767,742.733L1111.8,742.733C1140.32,742.733 1163.44,719.613 1163.44,691.093L1163.44,377.058Z" style="fill:rgb(189,235,255);"/>
        <clipPath id="_clip1">
            <path id="NFC-Image1" serif:id="NFC Image" d="M1163.44,377.058C1163.44,348.537 1140.32,325.417 1111.8,325.417L797.767,325.417C769.247,325.417 746.127,348.537 746.127,377.058L746.127,691.093C746.127,719.613 769.247,742.733 797.767,742.733L1111.8,742.733C1140.32,742.733 1163.44,719.613 1163.44,691.093L1163.44,377.058Z"/>
        </clipPath>
        <g clip-path="url(#_clip1)">
            <g id="Card" transform="matrix(0.866025,0.5,-0.44281,0.76697,409.278,-382.256)">
                <path d="M1126.63,544.826C1126.63,538.518 1124.42,532.468 1120.46,528.008C1116.52,523.547 1111.16,521.041 1105.57,521.041C1068.65,521.041 992.685,521.041 955.767,521.041C950.181,521.041 944.823,523.547 940.873,528.008C936.923,532.468 934.703,538.518 934.703,544.826C934.703,569.658 934.703,608.376 934.703,633.209C934.703,639.517 936.923,645.566 940.873,650.027C944.823,654.487 950.181,656.993 955.767,656.993C992.685,656.993 1068.65,656.993 1105.57,656.993C1111.16,656.993 1116.52,654.487 1120.46,650.027C1124.42,645.566 1126.63,639.517 1126.63,633.209C1126.63,608.376 1126.63,569.658 1126.63,544.826Z" style="fill:rgb(204,250,255);stroke:rgb(117,193,255);stroke-width:3.39px;"/>
            </g>
            <rect id="NFC-Waves" serif:id="NFC Waves" x="863.631" y="339.062" width="183.708" height="183.708" style="fill:rgb(0,90,146);fill-opacity:0;"/>
            <g id="NFC-Waves1" serif:id="NFC Waves">
                <g transform="matrix(4.1057e-17,0.670513,-0.716599,4.3879e-17,1335.64,-205.708)">
                    <path d="M947.067,426.989C947.067,426.989 763.319,521.074 943.551,644.145" style="fill:none;stroke:rgb(0,153,197);stroke-width:10.89px;"/>
                </g>
                <g transform="matrix(2.80407e-17,0.45794,-0.566802,3.47066e-17,1256.17,-2.33836)">
                    <path d="M947.067,426.989C947.067,426.989 763.319,521.074 943.551,644.145" style="fill:none;stroke:rgb(0,153,197);stroke-width:14.66px;"/>
                </g>
                <g transform="matrix(1.6326e-17,0.266625,-0.369484,2.26244e-17,1150.25,181.209)">
                    <path d="M947.067,426.989C947.067,426.989 763.319,521.074 943.551,644.145" style="fill:none;stroke:rgb(0,153,197);stroke-width:23.45px;"/>
                </g>
                <g transform="matrix(0.658863,0,0,0.658863,323.798,144.02)">
                    <circle cx="953.664" cy="448.868" r="21.772" style="fill:rgb(51,172,255);stroke:rgb(117,193,255);stroke-width:4.85px;"/>
                </g>
            </g>
            <g id="Phone" transform="matrix(1,0,0,1,-4.31382,-38.0742)">
                <path d="M1033.29,520.306C1033.29,512.689 1030.26,505.384 1024.88,499.998C1019.49,494.612 1012.19,491.586 1004.57,491.586C977.671,491.586 937.69,491.586 910.791,491.586C903.174,491.586 895.869,494.612 890.483,499.998C885.097,505.384 882.072,512.689 882.072,520.306C882.072,600.7 882.072,822.156 882.072,822.156L1033.29,822.156L1033.29,520.306Z" style="fill:rgb(204,250,255);"/>
                <clipPath id="_clip2">
                    <path d="M1033.29,520.306C1033.29,512.689 1030.26,505.384 1024.88,499.998C1019.49,494.612 1012.19,491.586 1004.57,491.586C977.671,491.586 937.69,491.586 910.791,491.586C903.174,491.586 895.869,494.612 890.483,499.998C885.097,505.384 882.072,512.689 882.072,520.306C882.072,600.7 882.072,822.156 882.072,822.156L1033.29,822.156L1033.29,520.306Z"/>
                </clipPath>
                <g clip-path="url(#_clip2)">
                    <g id="Phone-Scanner" serif:id="Phone Scanner" transform="matrix(0.529762,0,0,0.529762,451.542,260.594)">
                        <circle cx="952.864" cy="460.627" r="12.906" style="fill:rgb(204,250,255);stroke:rgb(0,153,197);stroke-width:2.75px;"/>
                    </g>
                    <g transform="matrix(0.573333,0,0,0.454454,366.045,290.482)">
                        <path d="M998.362,544.131C998.362,543.177 998.061,542.261 997.526,541.586C996.991,540.911 996.265,540.531 995.508,540.531C982.997,540.531 933.061,540.531 920.55,540.531C919.794,540.531 919.068,540.911 918.533,541.586C917.998,542.261 917.697,543.177 917.697,544.131C917.697,544.132 917.697,544.133 917.697,544.134C917.697,545.088 917.998,546.004 918.533,546.679C919.068,547.354 919.794,547.734 920.55,547.734C933.061,547.734 982.997,547.734 995.508,547.734C996.265,547.734 996.991,547.354 997.526,546.679C998.061,546.004 998.362,545.088 998.362,544.134C998.362,544.133 998.362,544.132 998.362,544.131Z" style="fill:rgb(0,90,146);"/>
                    </g>
                    <g transform="matrix(0.573333,0,0,0.454454,417.424,290.728)">
                        <path d="M998.362,544.131C998.362,543.177 998.061,542.261 997.526,541.586C996.991,540.911 996.265,540.531 995.508,540.531C982.997,540.531 933.061,540.531 920.55,540.531C919.794,540.531 919.068,540.911 918.533,541.586C917.998,542.261 917.697,543.177 917.697,544.131C917.697,544.132 917.697,544.133 917.697,544.134C917.697,545.088 917.998,546.004 918.533,546.679C919.068,547.354 919.794,547.734 920.55,547.734C933.061,547.734 982.997,547.734 995.508,547.734C996.265,547.734 996.991,547.354 997.526,546.679C998.061,546.004 998.362,545.088 998.362,544.134C998.362,544.133 998.362,544.132 998.362,544.131Z" style="fill:rgb(0,90,146);"/>
                    </g>
                    <g transform="matrix(0.688375,0,0,0.454454,266.373,282.906)">
                        <path d="M998.362,544.131C998.362,543.177 998.111,542.261 997.666,541.586C997.22,540.911 996.615,540.531 995.985,540.531C984.173,540.531 931.885,540.531 920.074,540.531C919.443,540.531 918.839,540.911 918.393,541.586C917.947,542.261 917.697,543.177 917.697,544.131C917.697,544.132 917.697,544.133 917.697,544.134C917.697,545.088 917.947,546.004 918.393,546.679C918.839,547.354 919.443,547.734 920.074,547.734C931.885,547.734 984.173,547.734 995.985,547.734C996.615,547.734 997.22,547.354 997.666,546.679C998.111,546.004 998.362,545.088 998.362,544.134C998.362,544.133 998.362,544.132 998.362,544.131Z" style="fill:rgb(0,90,146);"/>
                    </g>
                    <g transform="matrix(0.518943,0,0,0.454454,418.485,274.469)">
                        <path d="M998.362,544.131C998.362,543.177 998.03,542.261 997.438,541.586C996.847,540.911 996.045,540.531 995.209,540.531C982.324,540.531 933.735,540.531 920.85,540.531C920.013,540.531 919.212,540.911 918.62,541.586C918.029,542.261 917.697,543.177 917.697,544.131C917.697,544.132 917.697,544.133 917.697,544.134C917.697,545.088 918.029,546.004 918.62,546.679C919.212,547.354 920.013,547.734 920.85,547.734C933.735,547.734 982.324,547.734 995.209,547.734C996.045,547.734 996.847,547.354 997.438,546.679C998.03,546.004 998.362,545.088 998.362,544.134C998.362,544.133 998.362,544.132 998.362,544.131Z" style="fill:rgb(0,90,146);"/>
                    </g>
                    <g transform="matrix(0.626333,0,0,0.454454,368.701,274.469)">
                        <path d="M998.362,544.131C998.362,543.177 998.086,542.261 997.597,541.586C997.107,540.911 996.442,540.531 995.75,540.531C983.576,540.531 932.483,540.531 920.309,540.531C919.616,540.531 918.952,540.911 918.462,541.586C917.972,542.261 917.697,543.177 917.697,544.131C917.697,544.132 917.697,544.133 917.697,544.134C917.697,545.088 917.972,546.004 918.462,546.679C918.952,547.354 919.616,547.734 920.309,547.734C932.483,547.734 983.576,547.734 995.75,547.734C996.442,547.734 997.107,547.354 997.597,546.679C998.086,546.004 998.362,545.088 998.362,544.134C998.362,544.133 998.362,544.132 998.362,544.131Z" style="fill:rgb(0,90,146);"/>
                    </g>
                    <g transform="matrix(0.575588,0,0,0.454454,434.319,282.906)">
                        <path d="M998.362,544.131C998.362,543.177 998.062,542.261 997.529,541.586C996.996,540.911 996.273,540.531 995.519,540.531C983.023,540.531 933.035,540.531 920.539,540.531C919.785,540.531 919.062,540.911 918.529,541.586C917.996,542.261 917.697,543.177 917.697,544.131C917.697,544.132 917.697,544.133 917.697,544.134C917.697,545.088 917.996,546.004 918.529,546.679C919.062,547.354 919.785,547.734 920.539,547.734C933.035,547.734 983.023,547.734 995.519,547.734C996.273,547.734 996.996,547.354 997.529,546.679C998.062,546.004 998.362,545.088 998.362,544.134C998.362,544.133 998.362,544.132 998.362,544.131Z" style="fill:rgb(0,90,146);"/>
                    </g>
                    <g transform="matrix(1.55162,0,0,0.352054,-532.708,355.174)">
                        <path d="M998.362,544.127C998.362,543.174 998.276,542.259 998.123,541.585C997.97,540.91 997.762,540.531 997.546,540.531C989.619,540.531 926.439,540.531 918.513,540.531C918.296,540.531 918.089,540.91 917.936,541.585C917.783,542.259 917.697,543.174 917.697,544.127C917.697,544.131 917.697,544.134 917.697,544.138C917.697,545.091 917.783,546.006 917.936,546.68C918.089,547.355 918.296,547.734 918.513,547.734C926.439,547.734 989.619,547.734 997.546,547.734C997.762,547.734 997.97,547.355 998.123,546.68C998.276,546.006 998.362,545.091 998.362,544.138C998.362,544.134 998.362,544.131 998.362,544.127Z" style="fill:rgb(0,90,146);"/>
                    </g>
                    <g transform="matrix(0.606857,0,0,0.352054,334.297,362.057)">
                        <path d="M998.362,544.127C998.362,542.141 997.428,540.531 996.275,540.531C984.965,540.531 931.093,540.531 919.783,540.531C918.631,540.531 917.697,542.141 917.697,544.127C917.697,544.131 917.697,544.134 917.697,544.138C917.697,546.124 918.631,547.734 919.783,547.734C931.093,547.734 984.965,547.734 996.275,547.734C997.428,547.734 998.362,546.124 998.362,544.138C998.362,544.134 998.362,544.131 998.362,544.127Z" style="fill:rgb(0,90,146);"/>
                    </g>
                    <g transform="matrix(0.850667,0,0,0.352054,166.604,362.549)">
                        <path d="M998.362,544.127C998.362,542.141 997.695,540.531 996.873,540.531C986.844,540.531 929.215,540.531 919.185,540.531C918.363,540.531 917.697,542.141 917.697,544.127C917.697,544.131 917.697,544.134 917.697,544.138C917.697,546.124 918.363,547.734 919.185,547.734C929.215,547.734 986.844,547.734 996.873,547.734C997.695,547.734 998.362,546.124 998.362,544.138C998.362,544.134 998.362,544.131 998.362,544.127Z" style="fill:rgb(0,90,146);"/>
                    </g>
                    <g transform="matrix(1.15543,0,0,0.352054,-142.084,368.449)">
                        <path d="M998.362,544.127C998.362,542.141 997.871,540.531 997.266,540.531C988.343,540.531 927.715,540.531 918.793,540.531C918.187,540.531 917.697,542.141 917.697,544.127C917.697,544.131 917.697,544.134 917.697,544.138C917.697,546.124 918.187,547.734 918.793,547.734C927.715,547.734 988.343,547.734 997.266,547.734C997.871,547.734 998.362,546.124 998.362,544.138C998.362,544.134 998.362,544.131 998.362,544.127Z" style="fill:rgb(0,90,146);"/>
                    </g>
                    <g transform="matrix(1.46019,0,0,0.352054,-446.346,376.07)">
                        <path d="M998.362,544.127C998.362,542.141 997.973,540.531 997.495,540.531C989.369,540.531 926.689,540.531 918.564,540.531C918.085,540.531 917.697,542.141 917.697,544.127C917.697,544.131 917.697,544.134 917.697,544.138C917.697,546.124 918.085,547.734 918.564,547.734C926.689,547.734 989.369,547.734 997.495,547.734C997.973,547.734 998.362,546.124 998.362,544.138C998.362,544.134 998.362,544.131 998.362,544.127Z" style="fill:rgb(0,90,146);"/>
                    </g>
                    <g transform="matrix(1.08838,0,0,0.352054,-106.367,382.462)">
                        <path d="M998.362,544.127C998.362,542.141 997.841,540.531 997.198,540.531C988.065,540.531 927.993,540.531 918.86,540.531C918.218,540.531 917.697,542.141 917.697,544.127C917.697,544.131 917.697,544.134 917.697,544.138C917.697,546.124 918.218,547.734 918.86,547.734C927.993,547.734 988.065,547.734 997.198,547.734C997.841,547.734 998.362,546.124 998.362,544.138C998.362,544.134 998.362,544.131 998.362,544.127Z" style="fill:rgb(0,90,146);"/>
                    </g>
                    <g transform="matrix(1.37486,0,0,0.352054,-358.461,389.837)">
                        <path d="M998.362,544.127C998.362,542.141 997.949,540.531 997.441,540.531C989.115,540.531 926.944,540.531 918.618,540.531C918.109,540.531 917.697,542.141 917.697,544.127C917.697,544.131 917.697,544.134 917.697,544.138C917.697,546.124 918.109,547.734 918.618,547.734C926.944,547.734 989.115,547.734 997.441,547.734C997.949,547.734 998.362,546.124 998.362,544.138C998.362,544.134 998.362,544.131 998.362,544.127Z" style="fill:rgb(0,90,146);"/>
                    </g>
                    <g transform="matrix(1.09448,0,0,0.352054,-108.285,396.474)">
                        <path d="M998.362,544.127C998.362,542.141 997.844,540.531 997.205,540.531C988.091,540.531 927.967,540.531 918.854,540.531C918.215,540.531 917.697,542.141 917.697,544.127C917.697,544.131 917.697,544.134 917.697,544.138C917.697,546.124 918.215,547.734 918.854,547.734C927.967,547.734 988.091,547.734 997.205,547.734C997.844,547.734 998.362,546.124 998.362,544.138C998.362,544.134 998.362,544.131 998.362,544.127Z" style="fill:rgb(0,90,146);"/>
                    </g>
                    <g transform="matrix(1.39314,0,0,0.352054,-372.292,402.866)">
                        <path d="M998.362,544.127C998.362,542.141 997.955,540.531 997.453,540.531C989.171,540.531 926.887,540.531 918.606,540.531C918.104,540.531 917.697,542.141 917.697,544.127C917.697,544.131 917.697,544.134 917.697,544.138C917.697,546.124 918.104,547.734 918.606,547.734C926.887,547.734 989.171,547.734 997.453,547.734C997.955,547.734 998.362,546.124 998.362,544.138C998.362,544.134 998.362,544.131 998.362,544.127Z" style="fill:rgb(0,90,146);"/>
                    </g>
                    <g transform="matrix(0.466667,0,0,0.352054,467.362,409.749)">
                        <path d="M998.362,544.127C998.362,542.141 997.147,540.531 995.649,540.531C983.33,540.531 932.728,540.531 920.41,540.531C918.912,540.531 917.697,542.141 917.697,544.127C917.697,544.131 917.697,544.134 917.697,544.138C917.697,546.124 918.912,547.734 920.41,547.734C932.728,547.734 983.33,547.734 995.649,547.734C997.147,547.734 998.362,546.124 998.362,544.138C998.362,544.134 998.362,544.131 998.362,544.127Z" style="fill:rgb(0,90,146);"/>
                    </g>
                    <g transform="matrix(0.911619,0,0,0.352054,105.002,409.749)">
                        <path d="M998.362,544.127C998.362,542.141 997.74,540.531 996.973,540.531C987.199,540.531 928.859,540.531 919.086,540.531C918.319,540.531 917.697,542.141 917.697,544.127C917.697,544.131 917.697,544.134 917.697,544.138C917.697,546.124 918.319,547.734 919.086,547.734C928.859,547.734 987.199,547.734 996.973,547.734C997.74,547.734 998.362,546.124 998.362,544.138C998.362,544.134 998.362,544.131 998.362,544.127Z" style="fill:rgb(0,90,146);"/>
                    </g>
                    <g transform="matrix(0.911619,0,0,0.352054,62.4925,417.432)">
                        <path d="M998.362,544.127C998.362,542.141 997.74,540.531 996.973,540.531C987.199,540.531 928.859,540.531 919.086,540.531C918.319,540.531 917.697,542.141 917.697,544.127C917.697,544.131 917.697,544.134 917.697,544.138C917.697,546.124 918.319,547.734 919.086,547.734C928.859,547.734 987.199,547.734 996.973,547.734C997.74,547.734 998.362,546.124 998.362,544.138C998.362,544.134 998.362,544.131 998.362,544.127Z" style="fill:rgb(0,90,146);"/>
                    </g>
                    <g transform="matrix(0.911619,0,0,0.352054,56.8588,426.138)">
                        <path d="M998.362,544.127C998.362,542.141 997.74,540.531 996.973,540.531C987.199,540.531 928.859,540.531 919.086,540.531C918.319,540.531 917.697,542.141 917.697,544.127C917.697,544.131 917.697,544.134 917.697,544.138C917.697,546.124 918.319,547.734 919.086,547.734C928.859,547.734 987.199,547.734 996.973,547.734C997.74,547.734 998.362,546.124 998.362,544.138C998.362,544.134 998.362,544.131 998.362,544.127Z" style="fill:rgb(0,90,146);"/>
                    </g>
                    <g transform="matrix(0.911619,0,0,0.352054,68.6384,433.821)">
                        <path d="M998.362,544.127C998.362,542.141 997.74,540.531 996.973,540.531C987.199,540.531 928.859,540.531 919.086,540.531C918.319,540.531 917.697,542.141 917.697,544.127C917.697,544.131 917.697,544.134 917.697,544.138C917.697,546.124 918.319,547.734 919.086,547.734C928.859,547.734 987.199,547.734 996.973,547.734C997.74,547.734 998.362,546.124 998.362,544.138C998.362,544.134 998.362,544.131 998.362,544.127Z" style="fill:rgb(0,90,146);"/>
                    </g>
                    <g transform="matrix(0.547435,0,0,0.352054,468.589,426.138)">
                        <path d="M998.362,544.127C998.362,542.141 997.326,540.531 996.049,540.531C984.342,540.531 931.716,540.531 920.009,540.531C918.732,540.531 917.697,542.141 917.697,544.127C917.697,544.131 917.697,544.134 917.697,544.138C917.697,546.124 918.732,547.734 920.009,547.734C931.716,547.734 984.342,547.734 996.049,547.734C997.326,547.734 998.362,546.124 998.362,544.138C998.362,544.134 998.362,544.131 998.362,544.127Z" style="fill:rgb(0,90,146);"/>
                    </g>
                    <g transform="matrix(0.473524,0,0,0.352054,542.379,417.126)">
                        <path d="M998.362,544.127C998.362,542.141 997.165,540.531 995.688,540.531C983.425,540.531 932.633,540.531 920.37,540.531C918.894,540.531 917.697,542.141 917.697,544.127C917.697,544.131 917.697,544.134 917.697,544.138C917.697,546.124 918.894,547.734 920.37,547.734C932.633,547.734 983.425,547.734 995.688,547.734C997.165,547.734 998.362,546.124 998.362,544.138C998.362,544.134 998.362,544.131 998.362,544.127Z" style="fill:rgb(0,90,146);"/>
                    </g>
                    <g transform="matrix(0.352488,0,0,0.352054,657.89,433.875)">
                        <path d="M998.362,544.127C998.362,542.141 996.754,540.531 994.77,540.531C981.407,540.531 934.651,540.531 921.289,540.531C919.305,540.531 917.697,542.141 917.697,544.127C917.697,544.131 917.697,544.134 917.697,544.138C917.697,546.124 919.305,547.734 921.289,547.734C934.651,547.734 981.407,547.734 994.77,547.734C996.754,547.734 998.362,546.124 998.362,544.138C998.362,544.134 998.362,544.131 998.362,544.127Z" style="fill:rgb(0,90,146);"/>
                    </g>
                    <g transform="matrix(0.352488,0,0,0.352054,662.433,396.519)">
                        <path d="M998.362,544.127C998.362,542.141 996.754,540.531 994.77,540.531C981.407,540.531 934.651,540.531 921.289,540.531C919.305,540.531 917.697,542.141 917.697,544.127C917.697,544.131 917.697,544.134 917.697,544.138C917.697,546.124 919.305,547.734 921.289,547.734C934.651,547.734 981.407,547.734 994.77,547.734C996.754,547.734 998.362,546.124 998.362,544.138C998.362,544.134 998.362,544.131 998.362,544.127Z" style="fill:rgb(0,90,146);"/>
                    </g>
                    <g transform="matrix(0.381693,0,0,0.352054,631.507,382.477)">
                        <path d="M998.362,544.127C998.362,542.141 996.877,540.531 995.045,540.531C981.972,540.531 934.087,540.531 921.014,540.531C919.182,540.531 917.697,542.141 917.697,544.127C917.697,544.131 917.697,544.134 917.697,544.138C917.697,546.124 919.182,547.734 921.014,547.734C934.087,547.734 981.972,547.734 995.045,547.734C996.877,547.734 998.362,546.124 998.362,544.138C998.362,544.134 998.362,544.131 998.362,544.127Z" style="fill:rgb(0,90,146);"/>
                    </g>
                    <g transform="matrix(0.573333,0,0,0.454454,366.045,290.482)">
                        <path d="M998.362,544.131C998.362,543.177 998.061,542.261 997.526,541.586C996.991,540.911 996.265,540.531 995.508,540.531C982.997,540.531 933.061,540.531 920.55,540.531C919.794,540.531 919.068,540.911 918.533,541.586C917.998,542.261 917.697,543.177 917.697,544.131C917.697,544.132 917.697,544.133 917.697,544.134C917.697,545.088 917.998,546.004 918.533,546.679C919.068,547.354 919.794,547.734 920.55,547.734C933.061,547.734 982.997,547.734 995.508,547.734C996.265,547.734 996.991,547.354 997.526,546.679C998.061,546.004 998.362,545.088 998.362,544.134C998.362,544.133 998.362,544.132 998.362,544.131Z" style="fill:rgb(0,90,146);"/>
                    </g>
                    <g transform="matrix(1.44078,0,0,0.454454,-430.004,386.767)">
                        <path d="M998.362,544.131C998.362,542.143 997.853,540.531 997.226,540.531C988.178,540.531 927.88,540.531 918.832,540.531C918.205,540.531 917.697,542.143 917.697,544.131C917.697,544.132 917.697,544.133 917.697,544.134C917.697,546.122 918.205,547.734 918.832,547.734C927.88,547.734 988.178,547.734 997.226,547.734C997.853,547.734 998.362,546.122 998.362,544.134C998.362,544.133 998.362,544.132 998.362,544.131Z" style="fill:rgb(0,90,146);"/>
                    </g>
                    <g transform="matrix(0.405376,0,0,0.454454,519.654,395.945)">
                        <path d="M998.362,544.131C998.362,543.177 997.936,542.261 997.18,541.586C996.423,540.911 995.396,540.531 994.326,540.531C980.554,540.531 935.504,540.531 921.733,540.531C920.662,540.531 919.636,540.911 918.879,541.586C918.122,542.261 917.697,543.177 917.697,544.131C917.697,544.132 917.697,544.133 917.697,544.134C917.697,545.088 918.122,546.004 918.879,546.679C919.636,547.354 920.662,547.734 921.733,547.734C935.504,547.734 980.554,547.734 994.326,547.734C995.396,547.734 996.423,547.354 997.18,546.679C997.936,546.004 998.362,545.088 998.362,544.134C998.362,544.133 998.362,544.132 998.362,544.131Z" style="fill:rgb(0,90,146);"/>
                    </g>
                    <g transform="matrix(0.52096,0,0,0.454454,424.026,406.387)">
                        <path d="M998.362,544.131C998.362,542.143 996.956,540.531 995.221,540.531C982.351,540.531 933.708,540.531 920.837,540.531C919.103,540.531 917.697,542.143 917.697,544.131C917.697,544.132 917.697,544.133 917.697,544.134C917.697,546.122 919.103,547.734 920.837,547.734C933.708,547.734 982.351,547.734 995.221,547.734C996.956,547.734 998.362,546.122 998.362,544.134C998.362,544.133 998.362,544.132 998.362,544.131Z" style="fill:rgb(0,90,146);"/>
                    </g>
                    <g transform="matrix(0.855201,0,0,0.454454,163.911,406.387)">
                        <path d="M998.362,544.131C998.362,543.177 998.16,542.261 997.801,541.586C997.443,540.911 996.956,540.531 996.449,540.531C985.471,540.531 930.588,540.531 919.61,540.531C919.103,540.531 918.616,540.911 918.257,541.586C917.898,542.261 917.697,543.177 917.697,544.131C917.697,544.132 917.697,544.133 917.697,544.134C917.697,545.088 917.898,546.004 918.257,546.679C918.616,547.354 919.103,547.734 919.61,547.734C930.588,547.734 985.471,547.734 996.449,547.734C996.956,547.734 997.443,547.354 997.801,546.679C998.16,546.004 998.362,545.088 998.362,544.134C998.362,544.133 998.362,544.132 998.362,544.131Z" style="fill:rgb(0,90,146);"/>
                    </g>
                    <g transform="matrix(0.913944,0,0,0.454454,53.1546,416.888)">
                        <path d="M998.362,544.131C998.362,543.177 998.173,542.261 997.837,541.586C997.502,540.911 997.046,540.531 996.572,540.531C985.847,540.531 930.211,540.531 919.487,540.531C919.012,540.531 918.557,540.911 918.221,541.586C917.886,542.261 917.697,543.177 917.697,544.131C917.697,544.132 917.697,544.133 917.697,544.134C917.697,545.088 917.886,546.004 918.221,546.679C918.557,547.354 919.012,547.734 919.487,547.734C930.211,547.734 985.847,547.734 996.572,547.734C997.046,547.734 997.502,547.354 997.837,546.679C998.173,546.004 998.362,545.088 998.362,544.134C998.362,544.133 998.362,544.132 998.362,544.131Z" style="fill:rgb(0,90,146);"/>
                    </g>
                    <g transform="matrix(0.62666,0,0,0.454454,395.368,416.888)">
                        <path d="M998.362,544.131C998.362,543.177 998.087,542.261 997.597,541.586C997.107,540.911 996.443,540.531 995.751,540.531C983.579,540.531 932.48,540.531 920.308,540.531C919.615,540.531 918.951,540.911 918.462,541.586C917.972,542.261 917.697,543.177 917.697,544.131C917.697,544.132 917.697,544.133 917.697,544.134C917.697,545.088 917.972,546.004 918.462,546.679C918.951,547.354 919.615,547.734 920.308,547.734C932.48,547.734 983.579,547.734 995.751,547.734C996.443,547.734 997.107,547.354 997.597,546.679C998.087,546.004 998.362,545.088 998.362,544.134C998.362,544.133 998.362,544.132 998.362,544.131Z" style="fill:rgb(0,90,146);"/>
                    </g>
                    <g transform="matrix(0.62666,0,0,0.454454,333.378,423.261)">
                        <path d="M998.362,544.131C998.362,543.177 998.087,542.261 997.597,541.586C997.107,540.911 996.443,540.531 995.751,540.531C983.579,540.531 932.48,540.531 920.308,540.531C919.615,540.531 918.951,540.911 918.462,541.586C917.972,542.261 917.697,543.177 917.697,544.131C917.697,544.132 917.697,544.133 917.697,544.134C917.697,545.088 917.972,546.004 918.462,546.679C918.951,547.354 919.615,547.734 920.308,547.734C932.48,547.734 983.579,547.734 995.751,547.734C996.443,547.734 997.107,547.354 997.597,546.679C998.087,546.004 998.362,545.088 998.362,544.134C998.362,544.133 998.362,544.132 998.362,544.131Z" style="fill:rgb(0,90,146);"/>
                    </g>
                    <g transform="matrix(0.62666,0,0,0.454454,390.733,423.261)">
                        <path d="M998.362,544.131C998.362,543.177 998.087,542.261 997.597,541.586C997.107,540.911 996.443,540.531 995.751,540.531C983.579,540.531 932.48,540.531 920.308,540.531C919.615,540.531 918.951,540.911 918.462,541.586C917.972,542.261 917.697,543.177 917.697,544.131C917.697,544.132 917.697,544.133 917.697,544.134C917.697,545.088 917.972,546.004 918.462,546.679C918.951,547.354 919.615,547.734 920.308,547.734C932.48,547.734 983.579,547.734 995.751,547.734C996.443,547.734 997.107,547.354 997.597,546.679C998.087,546.004 998.362,545.088 998.362,544.134C998.362,544.133 998.362,544.132 998.362,544.131Z" style="fill:rgb(0,90,146);"/>
                    </g>
                    <g transform="matrix(0.783768,0,0,0.454454,172.689,431.227)">
                        <path d="M998.362,544.131C998.362,543.177 998.142,542.261 997.75,541.586C997.359,540.911 996.828,540.531 996.274,540.531C984.962,540.531 931.097,540.531 919.784,540.531C919.231,540.531 918.7,540.911 918.308,541.586C917.917,542.261 917.697,543.177 917.697,544.131C917.697,544.132 917.697,544.133 917.697,544.134C917.697,545.088 917.917,546.004 918.308,546.679C918.7,547.354 919.231,547.734 919.784,547.734C931.097,547.734 984.962,547.734 996.274,547.734C996.828,547.734 997.359,547.354 997.75,546.679C998.142,546.004 998.362,545.088 998.362,544.134C998.362,544.133 998.362,544.132 998.362,544.131Z" style="fill:rgb(0,90,146);"/>
                    </g>
                    <g transform="matrix(0.783768,0,0,0.454454,241.486,431.227)">
                        <path d="M998.362,544.131C998.362,543.177 998.142,542.261 997.75,541.586C997.359,540.911 996.828,540.531 996.274,540.531C984.962,540.531 931.097,540.531 919.784,540.531C919.231,540.531 918.7,540.911 918.308,541.586C917.917,542.261 917.697,543.177 917.697,544.131C917.697,544.132 917.697,544.133 917.697,544.134C917.697,545.088 917.917,546.004 918.308,546.679C918.7,547.354 919.231,547.734 919.784,547.734C931.097,547.734 984.962,547.734 996.274,547.734C996.828,547.734 997.359,547.354 997.75,546.679C998.142,546.004 998.362,545.088 998.362,544.134C998.362,544.133 998.362,544.132 998.362,544.131Z" style="fill:rgb(0,90,146);"/>
                    </g>
                    <g transform="matrix(1.08452,0,0,0.454454,-102.585,439.917)">
                        <path d="M998.362,544.131C998.362,543.177 998.203,542.261 997.92,541.586C997.637,540.911 997.253,540.531 996.853,540.531C986.773,540.531 929.285,540.531 919.205,540.531C918.805,540.531 918.422,540.911 918.139,541.586C917.856,542.261 917.697,543.177 917.697,544.131C917.697,544.132 917.697,544.133 917.697,544.134C917.697,545.088 917.856,546.004 918.139,546.679C918.422,547.354 918.805,547.734 919.205,547.734C929.285,547.734 986.773,547.734 996.853,547.734C997.253,547.734 997.637,547.354 997.92,546.679C998.203,546.004 998.362,545.088 998.362,544.134C998.362,544.133 998.362,544.132 998.362,544.131Z" style="fill:rgb(0,90,146);"/>
                    </g>
                    <g transform="matrix(0.442618,0,0,0.454454,582.802,439.917)">
                        <path d="M998.362,544.131C998.362,543.177 997.972,542.261 997.279,541.586C996.586,540.911 995.646,540.531 994.665,540.531C981.2,540.531 934.858,540.531 921.393,540.531C920.413,540.531 919.473,540.911 918.779,541.586C918.086,542.261 917.697,543.177 917.697,544.131C917.697,544.132 917.697,544.133 917.697,544.134C917.697,545.088 918.086,546.004 918.779,546.679C919.473,547.354 920.413,547.734 921.393,547.734C934.858,547.734 981.2,547.734 994.665,547.734C995.646,547.734 996.586,547.354 997.279,546.679C997.972,546.004 998.362,545.088 998.362,544.134C998.362,544.133 998.362,544.132 998.362,544.131Z" style="fill:rgb(0,90,146);"/>
                    </g>
                    <g transform="matrix(0.442618,0,0,0.454454,493.003,447.521)">
                        <path d="M998.362,544.131C998.362,543.177 997.972,542.261 997.279,541.586C996.586,540.911 995.646,540.531 994.665,540.531C981.2,540.531 934.858,540.531 921.393,540.531C920.413,540.531 919.473,540.911 918.779,541.586C918.086,542.261 917.697,543.177 917.697,544.131C917.697,544.132 917.697,544.133 917.697,544.134C917.697,545.088 918.086,546.004 918.779,546.679C919.473,547.354 920.413,547.734 921.393,547.734C934.858,547.734 981.2,547.734 994.665,547.734C995.646,547.734 996.586,547.354 997.279,546.679C997.972,546.004 998.362,545.088 998.362,544.134C998.362,544.133 998.362,544.132 998.362,544.131Z" style="fill:rgb(0,90,146);"/>
                    </g>
                    <g transform="matrix(0.442618,0,0,0.454454,533.919,447.521)">
                        <path d="M998.362,544.131C998.362,543.177 997.972,542.261 997.279,541.586C996.586,540.911 995.646,540.531 994.665,540.531C981.2,540.531 934.858,540.531 921.393,540.531C920.413,540.531 919.473,540.911 918.779,541.586C918.086,542.261 917.697,543.177 917.697,544.131C917.697,544.132 917.697,544.133 917.697,544.134C917.697,545.088 918.086,546.004 918.779,546.679C919.473,547.354 920.413,547.734 921.393,547.734C934.858,547.734 981.2,547.734 994.665,547.734C995.646,547.734 996.586,547.354 997.279,546.679C997.972,546.004 998.362,545.088 998.362,544.134C998.362,544.133 998.362,544.132 998.362,544.131Z" style="fill:rgb(0,90,146);"/>
                    </g>
                    <g transform="matrix(0.442618,0,0,0.454454,582.439,447.521)">
                        <path d="M998.362,544.131C998.362,543.177 997.972,542.261 997.279,541.586C996.586,540.911 995.646,540.531 994.665,540.531C981.2,540.531 934.858,540.531 921.393,540.531C920.413,540.531 919.473,540.911 918.779,541.586C918.086,542.261 917.697,543.177 917.697,544.131C917.697,544.132 917.697,544.133 917.697,544.134C917.697,545.088 918.086,546.004 918.779,546.679C919.473,547.354 920.413,547.734 921.393,547.734C934.858,547.734 981.2,547.734 994.665,547.734C995.646,547.734 996.586,547.354 997.279,546.679C997.972,546.004 998.362,545.088 998.362,544.134C998.362,544.133 998.362,544.132 998.362,544.131Z" style="fill:rgb(0,90,146);"/>
                    </g>
                    <g transform="matrix(0.983295,0,0,0.454454,33.5869,395.945)">
                        <path d="M998.362,544.131C998.362,543.177 998.186,542.261 997.874,541.586C997.562,540.911 997.139,540.531 996.698,540.531C986.251,540.531 929.808,540.531 919.361,540.531C918.919,540.531 918.496,540.911 918.184,541.586C917.872,542.261 917.697,543.177 917.697,544.131C917.697,544.132 917.697,544.133 917.697,544.134C917.697,545.088 917.872,546.004 918.184,546.679C918.496,547.354 918.919,547.734 919.361,547.734C929.808,547.734 986.251,547.734 996.698,547.734C997.139,547.734 997.562,547.354 997.874,546.679C998.186,546.004 998.362,545.088 998.362,544.134C998.362,544.133 998.362,544.132 998.362,544.131Z" style="fill:rgb(0,90,146);"/>
                    </g>
                </g>
                <path d="M1033.29,520.306C1033.29,512.689 1030.26,505.384 1024.88,499.998C1019.49,494.612 1012.19,491.586 1004.57,491.586C977.671,491.586 937.69,491.586 910.791,491.586C903.174,491.586 895.869,494.612 890.483,499.998C885.097,505.384 882.072,512.689 882.072,520.306C882.072,600.7 882.072,822.156 882.072,822.156L1033.29,822.156L1033.29,520.306Z" style="fill:none;stroke:rgb(0,153,197);stroke-width:7.55px;"/>
            </g>
            <rect id="Text-Box" serif:id="Text Box" x="754.639" y="460.899" width="111.915" height="141.366" style="fill:rgb(204,250,255);fill-opacity:0;"/>
            <g id="Text-Box1" serif:id="Text Box">
                <g transform="matrix(0.372515,0,0,0.426632,467.607,287.231)">
                    <g transform="matrix(72,0,0,72,783.474,483.033)">
                        <rect x="0.083" y="-0.7" width="0.162" height="0.7" style="fill:rgb(0,153,197);fill-rule:nonzero;"/>
                    </g>
                    <g transform="matrix(72,0,0,72,807.09,483.033)">
                        <path d="M0.725,-0.7L0.725,-0L0.592,-0L0.243,-0.425L0.243,-0L0.083,-0L0.083,-0.7L0.217,-0.7L0.565,-0.275L0.565,-0.7L0.725,-0.7Z" style="fill:rgb(0,153,197);fill-rule:nonzero;"/>
                    </g>
                    <g transform="matrix(72,0,0,72,865.266,483.033)">
                        <path d="M0.313,0.012C0.258,0.012 0.204,0.004 0.153,-0.011C0.101,-0.025 0.059,-0.045 0.028,-0.069L0.083,-0.191C0.113,-0.169 0.149,-0.151 0.19,-0.138C0.231,-0.125 0.273,-0.118 0.314,-0.118C0.36,-0.118 0.394,-0.125 0.416,-0.139C0.438,-0.152 0.449,-0.17 0.449,-0.193C0.449,-0.21 0.443,-0.224 0.43,-0.234C0.417,-0.246 0.4,-0.254 0.38,-0.261C0.359,-0.268 0.332,-0.275 0.297,-0.283C0.244,-0.296 0.2,-0.308 0.166,-0.321C0.132,-0.334 0.103,-0.354 0.079,-0.382C0.054,-0.41 0.042,-0.447 0.042,-0.494C0.042,-0.535 0.053,-0.572 0.075,-0.605C0.097,-0.637 0.13,-0.664 0.174,-0.683C0.219,-0.702 0.273,-0.712 0.337,-0.712C0.382,-0.712 0.425,-0.707 0.468,-0.696C0.511,-0.685 0.548,-0.67 0.58,-0.65L0.53,-0.527C0.465,-0.564 0.401,-0.582 0.336,-0.582C0.291,-0.582 0.257,-0.575 0.235,-0.56C0.214,-0.545 0.203,-0.526 0.203,-0.502C0.203,-0.478 0.216,-0.46 0.241,-0.449C0.266,-0.437 0.304,-0.425 0.355,-0.414C0.408,-0.401 0.452,-0.389 0.486,-0.376C0.52,-0.363 0.549,-0.343 0.574,-0.316C0.598,-0.289 0.61,-0.252 0.61,-0.205C0.61,-0.165 0.599,-0.129 0.577,-0.096C0.554,-0.063 0.521,-0.036 0.476,-0.017C0.431,0.002 0.377,0.012 0.313,0.012Z" style="fill:rgb(0,153,197);fill-rule:nonzero;"/>
                    </g>
                    <g transform="matrix(72,0,0,72,911.202,483.033)">
                        <path d="M0.625,-0.13L0.625,-0L0.083,-0L0.083,-0.7L0.612,-0.7L0.612,-0.57L0.244,-0.57L0.244,-0.418L0.569,-0.418L0.569,-0.292L0.244,-0.292L0.244,-0.13L0.625,-0.13Z" style="fill:rgb(0,153,197);fill-rule:nonzero;"/>
                    </g>
                    <g transform="matrix(72,0,0,72,959.514,483.033)">
                        <path d="M0.529,-0L0.394,-0.195L0.245,-0.195L0.245,-0L0.083,-0L0.083,-0.7L0.386,-0.7C0.448,-0.7 0.502,-0.69 0.548,-0.669C0.593,-0.648 0.628,-0.619 0.653,-0.581C0.678,-0.543 0.69,-0.498 0.69,-0.446C0.69,-0.394 0.678,-0.349 0.653,-0.312C0.627,-0.274 0.592,-0.245 0.546,-0.225L0.703,-0L0.529,-0ZM0.526,-0.446C0.526,-0.485 0.513,-0.516 0.488,-0.537C0.463,-0.558 0.426,-0.568 0.377,-0.568L0.245,-0.568L0.245,-0.324L0.377,-0.324C0.426,-0.324 0.463,-0.335 0.488,-0.356C0.513,-0.377 0.526,-0.407 0.526,-0.446Z" style="fill:rgb(0,153,197);fill-rule:nonzero;"/>
                    </g>
                    <g transform="matrix(72,0,0,72,1011.71,483.033)">
                        <path d="M0.228,-0.568L0.004,-0.568L0.004,-0.7L0.614,-0.7L0.614,-0.568L0.39,-0.568L0.39,-0L0.228,-0L0.228,-0.568Z" style="fill:rgb(0,153,197);fill-rule:nonzero;"/>
                    </g>
                </g>
                <g transform="matrix(0.671432,0,0,0.768975,217.148,171.236)">
                    <g transform="matrix(72,0,0,72,803.85,483.033)">
                        <path d="M0.725,-0.7L0.725,-0L0.592,-0L0.243,-0.425L0.243,-0L0.083,-0L0.083,-0.7L0.217,-0.7L0.565,-0.275L0.565,-0.7L0.725,-0.7Z" style="fill:rgb(0,153,197);fill-rule:nonzero;"/>
                    </g>
                    <g transform="matrix(72,0,0,72,862.026,483.033)">
                        <path d="M0.245,-0.57L0.245,-0.385L0.569,-0.385L0.569,-0.255L0.245,-0.255L0.245,-0L0.083,-0L0.083,-0.7L0.612,-0.7L0.612,-0.57L0.245,-0.57Z" style="fill:rgb(0,153,197);fill-rule:nonzero;"/>
                    </g>
                    <g transform="matrix(72,0,0,72,907.53,483.033)">
                        <path d="M0.418,0.012C0.347,0.012 0.282,-0.004 0.225,-0.035C0.167,-0.066 0.122,-0.109 0.089,-0.164C0.056,-0.219 0.039,-0.281 0.039,-0.35C0.039,-0.419 0.056,-0.482 0.089,-0.537C0.122,-0.592 0.167,-0.634 0.225,-0.666C0.282,-0.697 0.347,-0.712 0.419,-0.712C0.48,-0.712 0.535,-0.701 0.584,-0.68C0.632,-0.659 0.674,-0.628 0.707,-0.588L0.603,-0.492C0.556,-0.547 0.497,-0.574 0.427,-0.574C0.384,-0.574 0.345,-0.565 0.311,-0.546C0.277,-0.527 0.251,-0.5 0.232,-0.466C0.213,-0.432 0.203,-0.393 0.203,-0.35C0.203,-0.307 0.213,-0.268 0.232,-0.234C0.251,-0.2 0.277,-0.173 0.311,-0.155C0.345,-0.136 0.384,-0.126 0.427,-0.126C0.497,-0.126 0.556,-0.154 0.603,-0.209L0.707,-0.113C0.674,-0.072 0.632,-0.041 0.583,-0.02C0.534,0.001 0.479,0.012 0.418,0.012Z" style="fill:rgb(0,153,197);fill-rule:nonzero;"/>
                    </g>
                </g>
                <g transform="matrix(0.462251,0,0,0.529405,414.183,322.806)">
                    <g transform="matrix(72,0,0,72,783.474,483.033)">
                        <path d="M0.228,-0.568L0.004,-0.568L0.004,-0.7L0.614,-0.7L0.614,-0.568L0.39,-0.568L0.39,-0L0.228,-0L0.228,-0.568Z" style="fill:rgb(0,153,197);fill-rule:nonzero;"/>
                    </g>
                    <g transform="matrix(72,0,0,72,825.45,483.033)">
                        <path d="M0.544,-0.15L0.219,-0.15L0.157,-0L-0.009,-0L0.303,-0.7L0.463,-0.7L0.776,-0L0.606,-0L0.544,-0.15ZM0.493,-0.273L0.382,-0.541L0.271,-0.273L0.493,-0.273Z" style="fill:rgb(0,153,197);fill-rule:nonzero;"/>
                    </g>
                    <g transform="matrix(72,0,0,72,879.882,483.033)">
                        <path d="M0.556,-0.361L0.704,-0.361L0.704,-0.077C0.666,-0.048 0.622,-0.026 0.572,-0.011C0.522,0.004 0.472,0.012 0.421,0.012C0.348,0.012 0.283,-0.004 0.225,-0.035C0.167,-0.066 0.122,-0.109 0.089,-0.164C0.056,-0.219 0.039,-0.281 0.039,-0.35C0.039,-0.419 0.056,-0.482 0.089,-0.537C0.122,-0.592 0.167,-0.634 0.226,-0.666C0.285,-0.697 0.351,-0.712 0.424,-0.712C0.485,-0.712 0.541,-0.702 0.591,-0.681C0.641,-0.66 0.683,-0.63 0.717,-0.591L0.613,-0.495C0.563,-0.548 0.503,-0.574 0.432,-0.574C0.387,-0.574 0.348,-0.565 0.313,-0.546C0.278,-0.527 0.251,-0.501 0.232,-0.467C0.213,-0.433 0.203,-0.394 0.203,-0.35C0.203,-0.307 0.213,-0.268 0.232,-0.234C0.251,-0.2 0.278,-0.173 0.313,-0.155C0.347,-0.136 0.386,-0.126 0.43,-0.126C0.477,-0.126 0.519,-0.136 0.556,-0.156L0.556,-0.361Z" style="fill:rgb(0,153,197);fill-rule:nonzero;"/>
                    </g>
                </g>
            </g>
            <rect id="Text-Box2" serif:id="Text Box" x="754.639" y="460.899" width="111.915" height="141.366" style="fill:none;stroke:rgb(117,193,255);stroke-width:3.2px;"/>
        </g>
        <path id="NFC-Image2" serif:id="NFC Image" d="M1163.44,377.058C1163.44,348.537 1140.32,325.417 1111.8,325.417L797.767,325.417C769.247,325.417 746.127,348.537 746.127,377.058L746.127,691.093C746.127,719.613 769.247,742.733 797.767,742.733L1111.8,742.733C1140.32,742.733 1163.44,719.613 1163.44,691.093L1163.44,377.058Z" style="fill:none;stroke:rgb(0,153,197);stroke-width:7.55px;"/>
    </g>
</svg>
